<?xml version="1.0" encoding="UTF-8"?>
<svg width="25px" height="24px" viewBox="0 0 25 24" version="1.1" xmlns="http://www.w3.org/2000/svg" xmlns:xlink="http://www.w3.org/1999/xlink">
    <title>Cart</title>
    <defs>
        <rect id="path-1" x="0" y="0" width="24" height="24"></rect>
    </defs>
    <g id="Product-Detail-Page(s)" stroke="none" stroke-width="1" fill="none" fill-rule="evenodd">
        <g id="PDP-Drop-Down-Options-(HP)-/desktop" transform="translate(-1695.000000, -8.000000)">
            <g id="shopping-cart" transform="translate(1695.500000, 8.000000)">
                <mask id="mask-2" fill="white">
                    <use xlink:href="#path-1"></use>
                </mask>
                <g id="shopping-cart-(Background/Mask)"></g>
                <path d="M1,0 L5,0 C5.47662687,0 5.88701105,0.33638525 5.98055267,0.803743064 L6.82043076,5 L23,5 C23.2980251,5 23.5805206,5.13292789 23.7704964,5.3625555 C23.9604702,5.59218264 24.038126,5.89457798 23.9822979,6.18732786 L22.380867,14.5848246 C22.2437019,15.2754154 21.867979,15.8957567 21.3195229,16.337265 C20.7737961,16.7765741 20.0916233,17.0109692 19.3913536,17 L9.68864441,17 C8.98837519,17.0109692 8.30620384,16.7765741 7.7604785,16.337265 C7.21224737,15.8959398 6.83663511,15.2759199 6.6993289,14.5856676 C6.69938517,14.5859509 6.69927263,14.5853844 6.6993289,14.5856676 L5.02878952,6.23920202 C5.02201271,6.21159363 5.01638269,6.18353462 5.0119524,6.15507841 L4.18031597,2 L1,2 C0.447715223,2 0,1.55228478 0,1 C0,0.447715223 0.447715223,0 1,0 Z M8.66084099,14.1951857 C8.70656204,14.4253826 8.83179331,14.632165 9.01461315,14.779335 C9.19743061,14.9265032 9.42618847,15.0046825 9.66084003,15.000185 L9.68000031,15 L19.3999996,15 L19.4191608,15.000185 C19.6538124,15.0046825 19.8825703,14.9265032 20.0653877,14.779335 C20.2473545,14.6328516 20.3722725,14.4273081 20.4185181,14.1983976 L21.791275,7 L7.22072935,7 L8.66084099,14.1951857 Z M9.00003242,19.0000343 C10.1046019,19.0000343 11.0000324,19.8954639 11.0000324,21.0000343 C11.0000324,22.1046047 10.1046019,23.0000343 9.00003242,23.0000343 C7.89546299,23.0000343 7.00003242,22.1046028 7.00003242,21.0000343 C7.00003242,19.8954639 7.89546299,19.0000343 9.00003242,19.0000343 Z M20,19.0000343 C21.1045685,19.0000343 22,19.8954639 22,21.0000343 C22,22.1046047 21.1045704,23.0000343 20,23.0000343 C18.8954296,23.0000343 18,22.1046028 18,21.0000343 C18,19.8954639 18.8954296,19.0000343 20,19.0000343 Z" id="Vector-" fill="#FFFFFF" mask="url(#mask-2)"></path>
            </g>
        </g>
    </g>
</svg>
