<?xml version="1.0" encoding="UTF-8"?>
<svg width="24px" height="24px" viewBox="0 0 24 24" version="1.1" xmlns="http://www.w3.org/2000/svg" xmlns:xlink="http://www.w3.org/1999/xlink">
    <title>A4CDDCF1-C29A-3E65-BA16-5227F610A2F1@1x</title>
    <defs>
        <rect id="path-1" x="0" y="0" width="24" height="24"></rect>
    </defs>
    <g id="Home-Page" stroke="none" stroke-width="1" fill="none" fill-rule="evenodd">
        <g id="Home-Page-/mobile" transform="translate(-346.000000, -19.000000)">
            <g id="Header-/mobile" transform="translate(0.000000, 11.000000)">
                <g id="shopping-cart" transform="translate(346.000000, 8.000000)">
                    <mask id="mask-2" fill="white">
                        <use xlink:href="#path-1"></use>
                    </mask>
                    <g id="shopping-cart-(Background/Mask)"></g>
                    <path d="M0.999969482,0 L4.99996948,0 C5.47659636,0 5.88698053,0.33638525 5.98052216,0.803743064 L6.82040024,5 L22.9999695,5 C23.2979946,5 23.5804901,5.13292789 23.7704659,5.3625555 C23.9604397,5.59218264 24.0380955,5.89457798 23.9822674,6.18732786 L22.3808365,14.5848246 C22.2436714,15.2754154 21.8679485,15.8957567 21.3194923,16.337265 C20.7737656,16.7765741 20.0915928,17.0109692 19.3913231,17 L9.68861389,17 C8.98834467,17.0109692 8.30617332,16.7765741 7.76044798,16.337265 C7.21221685,15.8959398 6.8366046,15.2759199 6.69929838,14.5856676 C6.69935465,14.5859509 6.69924212,14.5853844 6.69929838,14.5856676 L5.028759,6.23920202 C5.02198219,6.21159363 5.01635218,6.18353462 5.01192188,6.15507841 L4.18028545,2 L0.999969482,2 C0.447684705,2 -3.05175781e-05,1.55228478 -3.05175781e-05,1 C-3.05175781e-05,0.447715223 0.447684705,0 0.999969482,0 Z M8.66081047,14.1951857 C8.70653152,14.4253826 8.83176279,14.632165 9.01458263,14.779335 C9.19740009,14.9265032 9.42615795,15.0046825 9.66080952,15.000185 L9.67996979,15 L19.3999691,15 L19.4191303,15.000185 C19.6537819,15.0046825 19.8825397,14.9265032 20.0653572,14.779335 C20.247324,14.6328516 20.372242,14.4273081 20.4184875,14.1983976 L21.7912445,7 L7.22069883,7 L8.66081047,14.1951857 Z M9.00000191,19.0000343 C10.1045713,19.0000343 11.0000019,19.8954639 11.0000019,21.0000343 C11.0000019,22.1046047 10.1045713,23.0000343 9.00000191,23.0000343 C7.89543247,23.0000343 7.00000191,22.1046028 7.00000191,21.0000343 C7.00000191,19.8954639 7.89543247,19.0000343 9.00000191,19.0000343 Z M19.9999695,19.0000343 C21.104538,19.0000343 21.9999695,19.8954639 21.9999695,21.0000343 C21.9999695,22.1046047 21.1045399,23.0000343 19.9999695,23.0000343 C18.8953991,23.0000343 17.9999695,22.1046028 17.9999695,21.0000343 C17.9999695,19.8954639 18.8953991,19.0000343 19.9999695,19.0000343 Z" id="Vector-" fill="#222F4D" mask="url(#mask-2)"></path>
                </g>
            </g>
        </g>
    </g>
</svg>
