<svg width="301" height="70" viewBox="0 0 301 70" xmlns="http://www.w3.org/2000/svg" version="1.1" xmlns:xlink="http://www.w3.org/1999/xlink">
    <title>Versare</title>
    <defs>
        <rect id="path-1" x="0" y="0" width="300" height="70"></rect>
    </defs>
    <g id="Home-Page" stroke="none" stroke-width="1" fill="none" fill-rule="evenodd">
        <g id="Home-Page-/desktop" transform="translate(-198.000000, -6234.000000)">
            <g id="Footer-/desktop" transform="translate(0.000000, 6104.000000)">
                <g id="Versare_Horizontal_Logo_RGB-9" transform="translate(198.500000, 130.000000)">
                    <mask id="mask-2" fill="white">
                        <use xlink:href="#path-1"></use>
                    </mask>
                    <g id="Versare_Horizontal_Logo_RGB-9-(Background/Mask)"></g>
                    <path d="M108.315135,50.4677887 L101.224889,50.4677887 L90.7321777,22.220459 L97.2081983,22.220459 L104.299044,42.6487381 L104.790909,44.2460696 C104.995045,43.6718779 105.118013,43.1400376 105.323361,42.689881 L112.410576,22.220459 L118.847221,22.220459 L108.315135,50.4677887 Z" id="Vector" fill="#FFFFFF" fill-rule="nonzero" mask="url(#mask-2)"></path>
                    <path d="M124.27832,22.220459 L144.565942,22.220459 L144.565942,27.5836167 L130.384839,27.5836167 L130.384839,33.4786113 L142.350122,33.4786113 L142.350122,38.8441879 L130.384839,38.8441879 L130.384839,45.104631 L144.773102,45.104631 L144.773102,50.4677887 L124.27832,50.4677887 L124.27832,22.220459 Z" id="Vector" fill="#FFFFFF" fill-rule="nonzero" mask="url(#mask-2)"></path>
                    <path d="M169.893981,50.4677887 L164.771191,42.0346116 C163.952223,40.6018549 163.623921,40.4378893 162.148326,40.4378893 L158.254595,40.4378893 L158.254595,50.4677887 L152.148682,50.4677887 L152.148682,22.220459 L164.93536,22.220459 C171.042482,22.220459 175.180926,25.7007008 175.180926,31.0638576 C175.180926,35.0347959 173.132906,37.858561 169.566885,39.1715179 C170.18111,39.6628179 170.631779,40.3586265 171.287801,41.4235133 L176.985443,50.4677887 L169.893981,50.4677887 Z M163.911036,35.3203815 C167.107553,35.3203815 168.829077,33.9699104 168.829077,31.4317286 C168.829077,28.8524035 167.107553,27.4989083 163.911036,27.4989083 L158.254595,27.4989083 L158.254595,35.3203815 L163.911036,35.3203815 Z" id="Vector" fill="#FFFFFF" mask="url(#mask-2)"></path>
                    <path d="M184.798181,42.2795056 C186.970382,44.7366121 189.593251,45.7597485 192.666801,45.7597485 C195.905112,45.7597485 197.586067,44.6137864 197.586067,42.5662985 C197.586067,40.7656708 196.39637,39.904078 193.240439,39.1683377 L190.575162,38.5953575 C184.591615,37.3247533 181.764,34.8706717 181.764,30.449574 C181.764,25.1251373 185.86308,21.8112793 192.747976,21.8112793 C197.011208,21.8112793 200.494238,23.2440378 203.240079,25.9455844 L199.387551,29.9576684 C197.297126,27.5834535 195.165507,26.8876472 192.297305,26.8876472 C189.469083,26.8876472 187.789342,28.0741493 187.789342,30.0393505 C187.789342,31.7994398 189.141983,32.6186755 192.133151,33.3144825 L194.798428,33.8463235 C200.903124,35.156256 203.651382,37.6944377 203.651382,42.1984273 C203.651382,47.4387622 199.471737,50.8766537 192.544439,50.8766537 C187.788131,50.8766537 183.401939,49.2399963 180.86084,46.2915895 L184.798181,42.2795056 Z" id="Vector" fill="#FFFFFF" fill-rule="nonzero" mask="url(#mask-2)"></path>
                    <path d="M226.918188,44.1637801 L215.811242,44.1637801 L213.557874,50.4677887 L207.123047,50.4677887 L218.068248,22.220459 L224.749011,22.220459 L235.65242,50.4677887 L229.172768,50.4677887 L226.918188,44.1637801 Z M225.074289,39.005735 L221.877165,30.1217973 C221.713008,29.6304973 221.591262,29.2202742 221.385914,28.6472925 C221.221758,29.2202742 221.057594,29.6304973 220.894042,30.1217973 L217.696327,39.005735 L225.074289,39.005735 Z" id="Vector" fill="#FFFFFF" mask="url(#mask-2)"></path>
                    <path d="M258.725229,50.4677887 L253.601246,42.0346116 C252.78228,40.6018549 252.453963,40.4378893 250.977763,40.4378893 L247.08343,40.4378893 L247.08343,50.4677887 L240.975098,50.4677887 L240.975098,22.220459 L253.762354,22.220459 C259.86947,22.220459 264.007924,25.7007008 264.007924,31.0638576 C264.007924,35.0347959 261.959906,37.858561 258.393282,39.1715179 C259.008113,39.6628179 259.458782,40.3586265 260.114803,41.4235133 L265.812439,50.4677887 L258.725229,50.4677887 Z M252.739865,35.3203815 C255.936378,35.3203815 257.657309,33.9699104 257.657309,31.4317286 C257.657309,28.8524035 255.936378,27.4989083 252.739865,27.4989083 L247.08343,27.4989083 L247.08343,35.3203815 L252.739865,35.3203815 Z" id="Vector" fill="#FFFFFF" mask="url(#mask-2)"></path>
                    <path d="M272.19873,22.220459 L292.486257,22.220459 L292.486257,27.5836167 L278.304604,27.5836167 L278.304604,33.4786113 L290.272871,33.4786113 L290.272871,38.8441879 L278.304604,38.8441879 L278.304604,45.104631 L292.690399,45.104631 L292.690399,50.4677887 L272.19873,50.4677887 L272.19873,22.220459 Z" id="Vector" fill="#FFFFFF" fill-rule="nonzero" mask="url(#mask-2)"></path>
                    <path d="M42.0339355,65.0750885 L67.5697234,65.0750885 L83.5571556,22.2272949 L56.9134577,22.2272949 L42.0339355,65.0750885 Z" id="Vector" fill="#99BBE2" fill-rule="nonzero" mask="url(#mask-2)"></path>
                    <path d="M44.7815132,50.4974747 L19.2457263,50.4974747 L3.25830078,7.6496582 L29.901992,7.6496582 L44.7815132,50.4974747 Z" id="Vector" fill="#99BBE2" fill-rule="nonzero" mask="url(#mask-2)"></path>
                </g>
            </g>
        </g>
    </g>
  </svg>
