<?xml version="1.0" encoding="UTF-8"?>
<svg width="43px" height="22px" viewBox="0 0 43 22" version="1.1" xmlns="http://www.w3.org/2000/svg" xmlns:xlink="http://www.w3.org/1999/xlink">
    <title>5D3A28C6-5A2A-42EC-8895-B73647A99363@1x</title>
    <g id="Home-Page" stroke="none" stroke-width="1" fill="none" fill-rule="evenodd">
        <g id="Home-Page-/desktop" transform="translate(-761.000000, -737.000000)">
            <g id="Hero-Carousel-/desktop" transform="translate(200.000000, 206.000000)">
                <g id="Arrow-Buttons" transform="translate(545.500000, 513.000000)">
                    <g id="Group-2" transform="translate(15.500000, 18.500000)">
                        <line x1="2.50000013" y1="9.50000007" x2="41.5000001" y2="9.50000007" id="Arrow-8" stroke="#FFFFFF" stroke-width="2.5" stroke-linecap="round" stroke-dasharray="0,0" transform="translate(22.000000, 10.000000) rotate(-179.999994) translate(-22.000000, -10.000000) "></line>
                        <path d="M-1.93933963,4.93933992 L6.00000013,12.8786803 L13.9393402,4.93933992 C14.5251261,4.35355343 15.4748741,4.35355343 16.06066,4.93933992 C16.6464473,5.52512632 16.6464473,6.47487391 16.06066,7.06066031 L7.06066001,16.06066 C6.47487414,16.6464465 5.52512611,16.6464465 4.93934024,16.06066 L-4.06066003,7.06066031 C-4.64644652,6.47487391 -4.64644652,5.52512632 -4.06066003,4.93933992 C-3.47487363,4.35355343 -2.52512603,4.35355343 -1.93933963,4.93933992 Z" id="Vector--Copy" fill="#FFFFFF" transform="translate(6.000000, 10.500000) scale(-1, -1) rotate(-89.999999) translate(-6.000000, -10.500000) "></path>
                    </g>
                </g>
            </g>
        </g>
    </g>
</svg>
