<?xml version="1.0" encoding="UTF-8"?>
<svg width="25px" height="24px" viewBox="0 0 25 24" version="1.1" xmlns="http://www.w3.org/2000/svg" xmlns:xlink="http://www.w3.org/1999/xlink">
    <title>User</title>
    <defs>
        <rect id="path-1" x="0" y="0" width="24" height="24"></rect>
    </defs>
    <g id="Product-Detail-Page(s)" stroke="none" stroke-width="1" fill="none" fill-rule="evenodd">
        <g id="PDP-Drop-Down-Options-(HP)-/desktop" transform="translate(-1478.000000, -8.000000)">
            <g id="user" transform="translate(1478.500000, 8.000000)">
                <mask id="mask-2" fill="white">
                    <use xlink:href="#path-1"></use>
                </mask>
                <g id="user-(Background/Mask)"></g>
                <path d="M9.00003242,7 C9.00003242,8.65685463 10.3431778,10 12.0000315,10 C13.6568851,10 15.0000315,8.65685415 15.0000315,7 C15.0000315,5.34314561 13.6568861,4 12.0000315,4 C10.3431778,4 9.00003242,5.34314537 9.00003242,7 Z M12.0000315,2 C14.7614546,2 17.0000315,4.23857594 17.0000315,7 C17.0000315,9.76142359 14.7614555,12 12.0000315,12 C9.23860741,12 7.00003242,9.76142311 7.00003242,7 C7.00003242,4.23857641 9.23860741,2 12.0000315,2 Z M8,14 L16,14 C17.3260822,14 18.5978508,14.5267859 19.535532,15.464467 C20.4732132,16.4021482 21,17.6739168 21,19 L21,21 C21,21.5522842 20.5522852,22 20,22 C19.4477148,22 19,21.5522842 19,21 L19,19 C19,18.2043514 18.6839285,17.4412899 18.1213188,16.8786802 C17.5587091,16.3160706 16.7956476,16 16,16 L8,16 C7.20435095,16 6.44128859,16.3160706 5.87867928,16.8786802 C5.31607008,17.4412899 5,18.2043505 5,19 L5,21 C5,21.5522842 4.55228478,22 4,22 C3.44771522,22 3,21.5522842 3,21 L3,19 C3,17.6739178 3.52678394,16.4021482 4.46446574,15.464467 C5.40214729,14.5267849 6.67391729,14 8,14 Z" id="Vector-" fill="#FFFFFF" mask="url(#mask-2)"></path>
            </g>
        </g>
    </g>
</svg>
